<svg width="79" height="40" viewBox="0 0 79 40" fill="none" xmlns="http://www.w3.org/2000/svg">
<path fill-rule="evenodd" clip-rule="evenodd" d="M0 0H18.4615V6.15385H6.15385V33.8462H10.7692V40H0V0Z" fill="#F5E6E1"/>
<path fill-rule="evenodd" clip-rule="evenodd" d="M76.1537 39.9999V22.3076H77.6921V39.9999H76.1537Z" fill="#F5E6E1"/>
<path d="M54.2079 39.6922V22.2676H60.691L66.7002 31.5722H66.7863V22.2676H72.7956V39.6922H66.5925L60.3248 30.1507H60.1956V39.6922H54.2079Z" fill="#F5E6E1"/>
<path d="M43.2786 21.9231C49.8263 21.9231 52.6694 25.3046 52.6694 30.9693C52.6694 36.6123 50.0632 39.9939 43.2786 39.9939C36.5155 39.9939 33.8878 36.6123 33.8878 30.9693C33.8878 25.3046 36.7094 21.9231 43.2786 21.9231ZM43.2786 35.5354C45.8632 35.5354 46.574 33.7262 46.574 31.0123V30.9046C46.574 28.1693 45.8847 26.3816 43.2786 26.3816C40.6724 26.3816 40.0047 28.1693 40.0047 30.9046V31.0123C40.0047 33.7262 40.6509 35.5354 43.2786 35.5354Z" fill="#F5E6E1"/>
<path d="M32.2185 29.2031H26.0585C26.0154 28.2339 25.5847 26.3816 23.28 26.3816C20.6954 26.3816 19.9631 28.1693 19.9631 30.9046V31.0123C19.9631 33.7262 20.6954 35.5354 23.28 35.5354C25.3047 35.5354 26.08 34.2431 26.1231 32.5846H32.3477C32.4339 36.3108 29.2247 39.9939 23.4523 39.9939C16.6893 39.9939 13.8462 36.8062 13.8462 30.9693C13.8462 25.0893 16.9047 21.9231 23.4523 21.9231C28.7077 21.9231 31.9816 24.5293 32.2185 29.2031Z" fill="#F5E6E1"/>
<path d="M69.3406 13.7415C70.9775 13.7415 71.9468 12.88 72.1406 11.9108H69.9006V7.96923H78.1714V17.7477H74.2083L73.9929 16.2831C72.8944 17.4677 70.8052 18.1569 68.7806 18.1569C62.7498 18.1569 59.3898 14.9692 59.3898 9.13231C59.3898 3.25231 62.8791 0 69.1252 0C74.4668 0 77.3744 2.73538 77.9775 6.69846H71.9898C71.8391 5.25538 70.2452 4.58769 69.2544 4.58769C66.6698 4.58769 65.5068 6.33231 65.5068 9.06769V9.17538C65.5068 11.8892 66.6483 13.7415 69.3406 13.7415Z" fill="#F5E6E1"/>
<path d="M48.4678 0C55.0155 0 57.8586 3.38154 57.8586 9.04615C57.8586 14.6892 55.2524 18.0708 48.4678 18.0708C41.7047 18.0708 39.077 14.6892 39.077 9.04615C39.077 3.38154 41.8986 0 48.4678 0ZM48.4678 13.6123C51.0524 13.6123 51.7632 11.8031 51.7632 9.08923V8.98154C51.7632 6.24615 51.0739 4.45846 48.4678 4.45846C45.8616 4.45846 45.1939 6.24615 45.1939 8.98154V9.08923C45.1939 11.8031 45.8401 13.6123 48.4678 13.6123Z" fill="#F5E6E1"/>
<path d="M23.0768 17.7693V0.344727H29.3015V13.2893H38.2184V17.7693H23.0768Z" fill="#F5E6E1"/>
</svg>
