<svg xmlns="http://www.w3.org/2000/svg" width="14" height="14" viewBox="0 0 14 14" fill="none">
  <path d="M2.90004 10.4C3.46671 9.96671 4.10004 9.62493 4.80004 9.37471C5.50004 9.12493 6.23337 9.00004 7.00004 9.00004C7.76671 9.00004 8.50004 9.12493 9.20004 9.37471C9.90004 9.62493 10.5334 9.96671 11.1 10.4C11.4889 9.94448 11.7918 9.42782 12.0087 8.85004C12.2252 8.27226 12.3334 7.6556 12.3334 7.00004C12.3334 5.52226 11.814 4.26382 10.7754 3.22471C9.73626 2.18604 8.47782 1.66671 7.00004 1.66671C5.52226 1.66671 4.26404 2.18604 3.22537 3.22471C2.18626 4.26382 1.66671 5.52226 1.66671 7.00004C1.66671 7.6556 1.77515 8.27226 1.99204 8.85004C2.20849 9.42782 2.51115 9.94448 2.90004 10.4ZM7.00004 7.66671C6.34448 7.66671 5.7916 7.44182 5.34137 6.99204C4.8916 6.54182 4.66671 5.98893 4.66671 5.33337C4.66671 4.67782 4.8916 4.12493 5.34137 3.67471C5.7916 3.22493 6.34448 3.00004 7.00004 3.00004C7.6556 3.00004 8.20848 3.22493 8.65871 3.67471C9.10848 4.12493 9.33337 4.67782 9.33337 5.33337C9.33337 5.98893 9.10848 6.54182 8.65871 6.99204C8.20848 7.44182 7.6556 7.66671 7.00004 7.66671ZM7.00004 13.6667C6.07782 13.6667 5.21115 13.4916 4.40004 13.1414C3.58893 12.7916 2.88337 12.3167 2.28337 11.7167C1.68337 11.1167 1.20849 10.4112 0.858707 9.60004C0.508485 8.78893 0.333374 7.92226 0.333374 7.00004C0.333374 6.07782 0.508485 5.21115 0.858707 4.40004C1.20849 3.58893 1.68337 2.88337 2.28337 2.28337C2.88337 1.68337 3.58893 1.20826 4.40004 0.858041C5.21115 0.508263 6.07782 0.333374 7.00004 0.333374C7.92226 0.333374 8.78893 0.508263 9.60004 0.858041C10.4112 1.20826 11.1167 1.68337 11.7167 2.28337C12.3167 2.88337 12.7916 3.58893 13.1414 4.40004C13.4916 5.21115 13.6667 6.07782 13.6667 7.00004C13.6667 7.92226 13.4916 8.78893 13.1414 9.60004C12.7916 10.4112 12.3167 11.1167 11.7167 11.7167C11.1167 12.3167 10.4112 12.7916 9.60004 13.1414C8.78893 13.4916 7.92226 13.6667 7.00004 13.6667ZM7.00004 12.3334C7.58893 12.3334 8.14448 12.2474 8.66671 12.0754C9.18893 11.9029 9.66671 11.6556 10.1 11.3334C9.66671 11.0112 9.18893 10.7638 8.66671 10.5914C8.14448 10.4194 7.58893 10.3334 7.00004 10.3334C6.41115 10.3334 5.8556 10.4194 5.33337 10.5914C4.81115 10.7638 4.33337 11.0112 3.90004 11.3334C4.33337 11.6556 4.81115 11.9029 5.33337 12.0754C5.8556 12.2474 6.41115 12.3334 7.00004 12.3334ZM7.00004 6.33337C7.28893 6.33337 7.52782 6.23893 7.71671 6.05004C7.9056 5.86115 8.00004 5.62226 8.00004 5.33337C8.00004 5.04448 7.9056 4.8056 7.71671 4.61671C7.52782 4.42782 7.28893 4.33337 7.00004 4.33337C6.71115 4.33337 6.47226 4.42782 6.28337 4.61671C6.09448 4.8056 6.00004 5.04448 6.00004 5.33337C6.00004 5.62226 6.09448 5.86115 6.28337 6.05004C6.47226 6.23893 6.71115 6.33337 7.00004 6.33337Z" fill="#B2A8A4"/>
</svg>