<svg width="40" height="40" viewBox="0 0 40 40" fill="none" xmlns="http://www.w3.org/2000/svg">
<rect width="40" height="40" rx="20" fill="#3A312F"/>
<mask id="mask0_1_20" style="mask-type:alpha" maskUnits="userSpaceOnUse" x="8" y="8" width="24" height="24">
<rect x="8" y="8" width="24" height="24" fill="#D9D9D9"/>
</mask>
<g mask="url(#mask0_1_20)">
<path d="M20 19.7C19.0333 19.7 18.2083 19.354 17.525 18.662C16.8417 17.9706 16.5 17.15 16.5 16.2C16.5 15.2333 16.8417 14.4083 17.525 13.725C18.2083 13.0416 19.0333 12.7 20 12.7C20.9667 12.7 21.7917 13.0416 22.475 13.725C23.1583 14.4083 23.5 15.2333 23.5 16.2C23.5 17.15 23.1583 17.9706 22.475 18.662C21.7917 19.354 20.9667 19.7 20 19.7ZM12.5 27.2999V25.075C12.5 24.5916 12.6333 24.1416 12.9 23.725C13.1667 23.3083 13.525 22.9833 13.975 22.75C14.9583 22.2666 15.9543 21.904 16.963 21.662C17.971 21.4206 18.9833 21.3 20 21.3C21.0167 21.3 22.0293 21.4206 23.038 21.662C24.046 21.904 25.0417 22.2666 26.025 22.75C26.475 22.9833 26.8333 23.3083 27.1 23.725C27.3667 24.1416 27.5 24.5916 27.5 25.075V27.2999H12.5ZM14 25.7999H26V25.075C26 24.875 25.9417 24.6916 25.825 24.525C25.7083 24.3583 25.55 24.2166 25.35 24.1C24.4833 23.6833 23.6043 23.3623 22.713 23.137C21.821 22.9123 20.9167 22.8 20 22.8C19.0833 22.8 18.179 22.9123 17.287 23.137C16.3957 23.3623 15.5167 23.6833 14.65 24.1C14.45 24.2166 14.2917 24.3583 14.175 24.525C14.0583 24.6916 14 24.875 14 25.075V25.7999ZM20 18.2C20.55 18.2 21.021 18.004 21.413 17.612C21.8043 17.2206 22 16.75 22 16.2C22 15.65 21.8043 15.179 21.413 14.787C21.021 14.3956 20.55 14.2 20 14.2C19.45 14.2 18.9793 14.3956 18.588 14.787C18.196 15.179 18 15.65 18 16.2C18 16.75 18.196 17.2206 18.588 17.612C18.9793 18.004 19.45 18.2 20 18.2Z" fill="#B3A8A4"/>
</g>
</svg>
