<svg width="16" height="16" viewBox="0 0 16 16" fill="none" xmlns="http://www.w3.org/2000/svg">
<mask id="mask0_155_54" style="mask-type:alpha" maskUnits="userSpaceOnUse" x="0" y="0" width="16" height="16">
<rect width="16" height="16" fill="#D9D9D9"/>
</mask>
<g mask="url(#mask0_155_54)">
<path d="M3.33333 12.6666H4.26667L10.0167 6.91665L9.08333 5.98331L3.33333 11.7333V12.6666ZM12.8667 5.94998L10.0333 3.14998L10.9667 2.21665C11.2222 1.96109 11.5362 1.83331 11.9087 1.83331C12.2807 1.83331 12.5944 1.96109 12.85 2.21665L13.7833 3.14998C14.0389 3.40554 14.1722 3.71398 14.1833 4.07531C14.1944 4.4362 14.0722 4.74442 13.8167 4.99998L12.8667 5.94998ZM11.9 6.93331L4.83333 14H2V11.1666L9.06667 4.09998L11.9 6.93331Z" fill="#D9CBC7"/>
</g>
</svg>
