<svg xmlns="http://www.w3.org/2000/svg" width="16" height="16" viewBox="0 0 16 16" fill="none">
<mask id="mask0_60_59" style="mask-type:alpha" maskUnits="userSpaceOnUse" x="0" y="0" width="16" height="16">
<rect width="16" height="16" fill="#D9D9D9"/>
</mask>
<g mask="url(#mask0_60_59)">
<path d="M8.00004 14.6667C7.08893 14.6667 6.22782 14.4916 5.41671 14.1414C4.6056 13.7916 3.89737 13.3138 3.29204 12.708C2.68626 12.1027 2.20849 11.3945 1.85871 10.5834C1.50849 9.77226 1.33337 8.91115 1.33337 8.00004C1.33337 7.07782 1.50849 6.21404 1.85871 5.40871C2.20849 4.60293 2.68626 3.89737 3.29204 3.29204C3.89737 2.68626 4.6056 2.20826 5.41671 1.85804C6.22782 1.50826 7.08893 1.33337 8.00004 1.33337C8.92226 1.33337 9.78604 1.50826 10.5914 1.85804C11.3972 2.20826 12.1027 2.68626 12.708 3.29204C13.3138 3.89737 13.7916 4.60293 14.1414 5.40871C14.4916 6.21404 14.6667 7.07782 14.6667 8.00004V8.96671C14.6667 9.62226 14.4418 10.1805 13.992 10.6414C13.5418 11.1027 12.9889 11.3334 12.3334 11.3334C11.9334 11.3334 11.5612 11.2445 11.2167 11.0667C10.8723 10.8889 10.5889 10.6556 10.3667 10.3667C10.0667 10.6667 9.71404 10.9029 9.30871 11.0754C8.90293 11.2474 8.46671 11.3334 8.00004 11.3334C7.07782 11.3334 6.29182 11.0083 5.64204 10.358C4.99182 9.70826 4.66671 8.92226 4.66671 8.00004C4.66671 7.07782 4.99182 6.2916 5.64204 5.64137C6.29182 4.9916 7.07782 4.66671 8.00004 4.66671C8.92226 4.66671 9.70848 4.9916 10.3587 5.64137C11.0085 6.2916 11.3334 7.07782 11.3334 8.00004V8.96671C11.3334 9.28893 11.4334 9.5416 11.6334 9.72471C11.8334 9.90826 12.0667 10 12.3334 10C12.6 10 12.8334 9.90826 13.0334 9.72471C13.2334 9.5416 13.3334 9.28893 13.3334 8.96671V8.00004C13.3334 6.54448 12.8083 5.2916 11.758 4.24137C10.7083 3.1916 9.4556 2.66671 8.00004 2.66671C6.54448 2.66671 5.2916 3.1916 4.24137 4.24137C3.1916 5.2916 2.66671 6.54448 2.66671 8.00004C2.66671 9.4556 3.1916 10.7083 4.24137 11.758C5.2916 12.8083 6.54448 13.3334 8.00004 13.3334H11.3334V14.6667H8.00004ZM8.00004 10C8.5556 10 9.02782 9.8056 9.41671 9.41671C9.8056 9.02782 10 8.5556 10 8.00004C10 7.44448 9.8056 6.97226 9.41671 6.58337C9.02782 6.19448 8.5556 6.00004 8.00004 6.00004C7.44448 6.00004 6.97226 6.19448 6.58337 6.58337C6.19448 6.97226 6.00004 7.44448 6.00004 8.00004C6.00004 8.5556 6.19448 9.02782 6.58337 9.41671C6.97226 9.8056 7.44448 10 8.00004 10Z" fill="#B2A8A4"/>
</g>
</svg>