<svg xmlns="http://www.w3.org/2000/svg" width="16" height="16" viewBox="0 0 16 16" fill="none">
  <mask id="mask0_60_75" style="mask-type:alpha" maskUnits="userSpaceOnUse" x="0" y="0" width="16" height="16">
    <rect width="16" height="16" fill="#D9D9D9"/>
  </mask>
  <g mask="url(#mask0_60_75)">
    <path d="M8.00008 10.6666C8.83342 10.6666 9.54186 10.3751 10.1254 9.79196C10.7085 9.2084 11.0001 8.49996 11.0001 7.66663C11.0001 6.83329 10.7085 6.12485 10.1254 5.54129C9.54186 4.95818 8.83342 4.66663 8.00008 4.66663C7.16675 4.66663 6.4583 4.95818 5.87475 5.54129C5.29164 6.12485 5.00008 6.83329 5.00008 7.66663C5.00008 8.49996 5.29164 9.2084 5.87475 9.79196C6.4583 10.3751 7.16675 10.6666 8.00008 10.6666ZM8.00008 9.46663C7.50008 9.46663 7.07519 9.29151 6.72542 8.94129C6.37519 8.59152 6.20008 8.16663 6.20008 7.66663C6.20008 7.16663 6.37519 6.74152 6.72542 6.39129C7.07519 6.04151 7.50008 5.86663 8.00008 5.86663C8.50008 5.86663 8.92519 6.04151 9.27542 6.39129C9.62519 6.74152 9.80008 7.16663 9.80008 7.66663C9.80008 8.16663 9.62519 8.59152 9.27542 8.94129C8.92519 9.29151 8.50008 9.46663 8.00008 9.46663ZM8.00008 12.6666C6.37786 12.6666 4.90008 12.2137 3.56675 11.308C2.23341 10.4026 1.26675 9.18885 0.666748 7.66663C1.26675 6.1444 2.23341 4.9304 3.56675 4.02463C4.90008 3.11929 6.37786 2.66663 8.00008 2.66663C9.6223 2.66663 11.1001 3.11929 12.4334 4.02463C13.7667 4.9304 14.7334 6.1444 15.3334 7.66663C14.7334 9.18885 13.7667 10.4026 12.4334 11.308C11.1001 12.2137 9.6223 12.6666 8.00008 12.6666ZM8.00008 11.3333C9.25564 11.3333 10.4085 11.0026 11.4587 10.3413C12.5085 9.6804 13.3112 8.78885 13.8667 7.66663C13.3112 6.5444 12.5085 5.65263 11.4587 4.99129C10.4085 4.3304 9.25564 3.99996 8.00008 3.99996C6.74453 3.99996 5.59164 4.3304 4.54141 4.99129C3.49164 5.65263 2.68897 6.5444 2.13341 7.66663C2.68897 8.78885 3.49164 9.6804 4.54141 10.3413C5.59164 11.0026 6.74453 11.3333 8.00008 11.3333Z" fill="#B2A8A4"/>
  </g>
</svg>