<svg xmlns="http://www.w3.org/2000/svg" width="16" height="16" viewBox="0 0 16 16" fill="none">
  <mask id="mask0_60_71" style="mask-type:alpha" maskUnits="userSpaceOnUse" x="0" y="0" width="16" height="16">
    <rect width="16" height="16" fill="#D9D9D9"/>
  </mask>
  <g mask="url(#mask0_60_71)">
    <path d="M3.99996 14.6666C3.63329 14.6666 3.31951 14.5362 3.05863 14.2753C2.79729 14.014 2.66663 13.7 2.66663 13.3333V6.66663C2.66663 6.29996 2.79729 5.98596 3.05863 5.72463C3.31951 5.46374 3.63329 5.33329 3.99996 5.33329H4.66663V3.99996C4.66663 3.07774 4.99174 2.29151 5.64196 1.64129C6.29174 0.991515 7.07774 0.666626 7.99996 0.666626C8.92218 0.666626 9.7084 0.991515 10.3586 1.64129C11.0084 2.29151 11.3333 3.07774 11.3333 3.99996V5.33329H12C12.3666 5.33329 12.6806 5.46374 12.942 5.72463C13.2028 5.98596 13.3333 6.29996 13.3333 6.66663V13.3333C13.3333 13.7 13.2028 14.014 12.942 14.2753C12.6806 14.5362 12.3666 14.6666 12 14.6666H3.99996ZM3.99996 13.3333H12V6.66663H3.99996V13.3333ZM7.99996 11.3333C8.36663 11.3333 8.68063 11.2028 8.94196 10.942C9.20285 10.6806 9.33329 10.3666 9.33329 9.99996C9.33329 9.63329 9.20285 9.31929 8.94196 9.05796C8.68063 8.79707 8.36663 8.66663 7.99996 8.66663C7.63329 8.66663 7.31952 8.79707 7.05863 9.05796C6.79729 9.31929 6.66663 9.63329 6.66663 9.99996C6.66663 10.3666 6.79729 10.6806 7.05863 10.942C7.31952 11.2028 7.63329 11.3333 7.99996 11.3333ZM5.99996 5.33329H9.99996V3.99996C9.99996 3.4444 9.80552 2.97218 9.41663 2.58329C9.02774 2.1944 8.55551 1.99996 7.99996 1.99996C7.4444 1.99996 6.97218 2.1944 6.58329 2.58329C6.1944 2.97218 5.99996 3.4444 5.99996 3.99996V5.33329Z" fill="#B2A8A4"/>
  </g>
</svg>