<svg width="104" height="104" viewBox="0 0 104 104" fill="none" xmlns="http://www.w3.org/2000/svg">
<rect width="104" height="104" rx="52" fill="#3A312F"/>
<mask id="mask0_155_40" style="mask-type:alpha" maskUnits="userSpaceOnUse" x="20" y="20" width="64" height="64">
<rect x="20.8" y="20.8" width="62.4" height="62.4" fill="#D9D9D9"/>
</mask>
<g mask="url(#mask0_155_40)">
<path d="M52 51.22C49.4867 51.22 47.3417 50.3204 45.565 48.5212C43.7883 46.7237 42.9 44.59 42.9 42.12C42.9 39.6066 43.7883 37.4616 45.565 35.685C47.3417 33.9083 49.4867 33.02 52 33.02C54.5133 33.02 56.6583 33.9083 58.435 35.685C60.2117 37.4616 61.1 39.6066 61.1 42.12C61.1 44.59 60.2117 46.7237 58.435 48.5212C56.6583 50.3204 54.5133 51.22 52 51.22ZM32.5 70.98V65.195C32.5 63.9383 32.8467 62.7683 33.54 61.685C34.2333 60.6016 35.165 59.7566 36.335 59.15C38.8917 57.8933 41.4813 56.9504 44.1038 56.3212C46.7246 55.6937 49.3567 55.38 52 55.38C54.6433 55.38 57.2763 55.6937 59.8988 56.3212C62.5196 56.9504 65.1083 57.8933 67.665 59.15C68.835 59.7566 69.7667 60.6016 70.46 61.685C71.1533 62.7683 71.5 63.9383 71.5 65.195V70.98H32.5ZM36.4 67.08H67.6V65.195C67.6 64.675 67.4483 64.1983 67.145 63.765C66.8417 63.3316 66.43 62.9633 65.91 62.66C63.6567 61.5766 61.3713 60.742 59.0538 60.1562C56.7346 59.572 54.3833 59.28 52 59.28C49.6167 59.28 47.2654 59.572 44.9462 60.1562C42.6287 60.742 40.3433 61.5766 38.09 62.66C37.57 62.9633 37.1583 63.3316 36.855 63.765C36.5517 64.1983 36.4 64.675 36.4 65.195V67.08ZM52 47.32C53.43 47.32 54.6546 46.8104 55.6738 45.7912C56.6913 44.7737 57.2 43.55 57.2 42.12C57.2 40.69 56.6913 39.4654 55.6738 38.4462C54.6546 37.4287 53.43 36.92 52 36.92C50.57 36.92 49.3463 37.4287 48.3288 38.4462C47.3096 39.4654 46.8 40.69 46.8 42.12C46.8 43.55 47.3096 44.7737 48.3288 45.7912C49.3463 46.8104 50.57 47.32 52 47.32Z" fill="#D9CBC7"/>
</g>
</svg>
