<svg xmlns="http://www.w3.org/2000/svg" width="16" height="16" viewBox="0 0 16 16" fill="none">
  <mask id="mask0_1_368" style="mask-type:alpha" maskUnits="userSpaceOnUse" x="0" y="0" width="16" height="16">
    <rect width="16" height="16" fill="#D9D9D9"/>
  </mask>
  <g mask="url(#mask0_1_368)">
    <path d="M1.33333 14V2H8V4.66667H14.6667V14H1.33333ZM2.66667 12.6667H4V11.3333H2.66667V12.6667ZM2.66667 10H4V8.66667H2.66667V10ZM2.66667 7.33333H4V6H2.66667V7.33333ZM2.66667 4.66667H4V3.33333H2.66667V4.66667ZM5.33333 12.6667H6.66667V11.3333H5.33333V12.6667ZM5.33333 10H6.66667V8.66667H5.33333V10ZM5.33333 7.33333H6.66667V6H5.33333V7.33333ZM5.33333 4.66667H6.66667V3.33333H5.33333V4.66667ZM8 12.6667H13.3333V6H8V7.33333H9.33333V8.66667H8V10H9.33333V11.3333H8V12.6667ZM10.6667 8.66667V7.33333H12V8.66667H10.6667ZM10.6667 11.3333V10H12V11.3333H10.6667Z" fill="#B2A8A4"/>
  </g>
</svg>